<svg width="1200" height="700" viewBox="0 0 1200 700" fill="none" xmlns="http://www.w3.org/2000/svg">
  <rect width="1200" height="700" rx="36" fill="#EEF6FF"/>
  <circle cx="180" cy="140" r="90" fill="#FFE3A5"/>
  <circle cx="1030" cy="116" r="70" fill="#D8F6EC"/>
  <rect x="104" y="165" width="430" height="320" rx="28" fill="#ffffff" stroke="#DCE7F3" stroke-width="4"/>
  <rect x="150" y="216" width="190" height="18" rx="9" fill="#224A7C" fill-opacity="0.16"/>
  <rect x="150" y="254" width="140" height="16" rx="8" fill="#224A7C" fill-opacity="0.1"/>
  <rect x="150" y="311" width="338" height="124" rx="24" fill="#F5F9FD"/>
  <rect x="174" y="337" width="105" height="75" rx="18" fill="#FFFFFF" stroke="#DCE7F3"/>
  <rect x="299" y="337" width="165" height="12" rx="6" fill="#4E8EF7" fill-opacity="0.3"/>
  <rect x="299" y="363" width="138" height="12" rx="6" fill="#163056" fill-opacity="0.14"/>
  <rect x="299" y="389" width="118" height="12" rx="6" fill="#163056" fill-opacity="0.1"/>
  <rect x="635" y="140" width="448" height="392" rx="34" fill="#163056"/>
  <rect x="692" y="204" width="208" height="16" rx="8" fill="white" fill-opacity="0.9"/>
  <rect x="692" y="238" width="168" height="14" rx="7" fill="white" fill-opacity="0.4"/>
  <rect x="693" y="292" width="332" height="146" rx="26" fill="white" fill-opacity="0.1"/>
  <path d="M720 395C752 360 790 333 834 314C875 297 924 288 972 290" stroke="#55D1B2" stroke-width="14" stroke-linecap="round"/>
  <circle cx="974" cy="290" r="18" fill="#55D1B2"/>
  <circle cx="835" cy="314" r="14" fill="#4E8EF7"/>
  <circle cx="768" cy="352" r="14" fill="#FFD483"/>
  <rect x="178" y="540" width="194" height="34" rx="17" fill="#4E8EF7"/>
  <rect x="390" y="540" width="132" height="34" rx="17" fill="#DCE7F3"/>
  <rect x="694" y="476" width="188" height="38" rx="19" fill="#4E8EF7"/>
  <rect x="898" y="476" width="124" height="38" rx="19" fill="#2E4768"/>
  <circle cx="563" cy="546" r="62" fill="#D8F6EC"/>
  <path d="M522 559L550 524L575 543L610 500" stroke="#3AB59C" stroke-width="14" stroke-linecap="round" stroke-linejoin="round"/>
</svg>
